<svg width="18" height="20" viewBox="0 0 18 20" fill="none" xmlns="http://www.w3.org/2000/svg">
<g filter="url(#filter0_b_2_7)">
<path d="M2.70661 18.1196L2.7065 18.1185L1.55428 6.04004H16.4445L15.2922 18.1185L15.2922 18.1189C15.2433 18.6406 14.8026 19.0502 14.2612 19.0502H3.73754C3.19312 19.0502 2.75554 18.6579 2.70661 18.1196Z" fill="white" stroke="black" stroke-width="0.5"/>
<path d="M11.3301 1.93002V2.18002H11.5801H16.7201C17.2931 2.18002 17.75 2.63693 17.75 3.20993C17.75 3.78293 17.2931 4.23984 16.7201 4.23984H1.27991C0.70692 4.23984 0.25 3.78292 0.25 3.20993C0.25 2.63694 0.70692 2.18002 1.27991 2.18002H6.44018H6.69018V1.93002V1.27991C6.69018 0.70692 7.1471 0.25 7.72009 0.25H10.3002C10.8732 0.25 11.3301 0.706913 11.3301 1.27991V1.93002Z" fill="white" stroke="black" stroke-width="0.5"/>
</g>
<defs>
<filter id="filter0_b_2_7" x="-4" y="-4" width="26" height="28" filterUnits="userSpaceOnUse" color-interpolation-filters="sRGB">
<feFlood flood-opacity="0" result="BackgroundImageFix"/>
<feGaussianBlur in="BackgroundImage" stdDeviation="2"/>
<feComposite in2="SourceAlpha" operator="in" result="effect1_backgroundBlur_2_7"/>
<feBlend mode="normal" in="SourceGraphic" in2="effect1_backgroundBlur_2_7" result="shape"/>
</filter>
</defs>
</svg>
